<?xml version="1.0" encoding="utf-8"?>
<!-- Generator: Adobe Illustrator 17.0.0, SVG Export Plug-In . SVG Version: 6.00 Build 0)  -->
<!DOCTYPE svg PUBLIC "-//W3C//DTD SVG 1.1//EN" "http://www.w3.org/Graphics/SVG/1.1/DTD/svg11.dtd">
<svg version="1.1" id="Layer_1" xmlns="http://www.w3.org/2000/svg" xmlns:xlink="http://www.w3.org/1999/xlink" x="0px" y="0px"
	 width="136px" height="41px" viewBox="0 0 136 41" enable-background="new 0 0 136 41" xml:space="preserve">
<g>
	<defs>
		<rect id="SVGID_1_" width="136" height="41"/>
	</defs>
	<clipPath id="SVGID_2_">
		<use xlink:href="#SVGID_1_"  overflow="visible"/>
	</clipPath>
	<rect opacity="0" clip-path="url(#SVGID_2_)" fill-rule="evenodd" clip-rule="evenodd" fill="#FFFFFF" width="136" height="41"/>
</g>
<g>
	<defs>
		<rect id="SVGID_3_" x="0.457" y="0.588" width="134.645" height="39.689"/>
	</defs>
	<clipPath id="SVGID_4_">
		<use xlink:href="#SVGID_3_"  overflow="visible"/>
	</clipPath>
	<g clip-path="url(#SVGID_4_)">
		<defs>
			<rect id="SVGID_5_" x="0.457" y="0.588" width="134.645" height="39.689"/>
		</defs>
		<clipPath id="SVGID_6_">
			<use xlink:href="#SVGID_5_"  overflow="visible"/>
		</clipPath>
		<g clip-path="url(#SVGID_6_)">
			<defs>
				<rect id="SVGID_7_" x="0.457" y="0.654" width="134.466" height="39.624"/>
			</defs>
			<clipPath id="SVGID_8_">
				<use xlink:href="#SVGID_7_"  overflow="visible"/>
			</clipPath>
			<path clip-path="url(#SVGID_8_)" fill="#1A1818" d="M0.884,12V4.514h1.763v7.352c0,1.491,0.941,2.028,1.972,2.028
				c1.18,0,1.957-0.761,1.912-1.984V4.514H8.22v7.427c0.015,2.192-1.613,3.385-3.705,3.385C2.483,15.326,0.884,14.357,0.884,12"/>
			<polygon clip-path="url(#SVGID_8_)" fill="#1A1818" points="10.013,4.514 11.761,4.514 15.797,11.627 15.827,11.627 
				15.827,4.514 17.396,4.514 17.396,15.147 15.901,15.147 11.611,7.526 11.581,7.526 11.581,15.147 10.013,15.147 			"/>
			<rect x="19.218" y="4.513" clip-path="url(#SVGID_8_)" fill="#1A1818" width="1.763" height="10.633"/>
			<polygon clip-path="url(#SVGID_8_)" fill="#1A1818" points="22.087,4.514 23.88,4.514 26.061,12.985 26.091,12.985 28.257,4.514 
				29.886,4.514 26.913,15.192 25.045,15.192 			"/>
			<polygon clip-path="url(#SVGID_8_)" fill="#1A1818" points="30.991,4.514 37.296,4.514 37.296,5.99 32.755,5.99 32.755,8.973 
				36.37,8.973 36.37,10.434 32.755,10.434 32.755,13.656 37.311,13.656 37.311,15.147 30.991,15.147 			"/>
			<path clip-path="url(#SVGID_8_)" fill="#1A1818" d="M42.197,9.584c1.24,0,1.883-0.596,1.883-1.849
				c0-1.104-0.553-1.819-1.808-1.819h-1.673v3.669H42.197z M38.835,4.514h3.66c2.196,0,3.317,1.268,3.317,3.132
				c0,1.491-0.687,2.655-2.107,2.998l2.42,4.504h-1.897l-2.181-4.206h-1.449v4.206h-1.763V4.514z"/>
			<path clip-path="url(#SVGID_8_)" fill="#1A1818" d="M46.799,14.088l0.896-1.253c0.732,0.537,1.494,1.014,2.886,1.014
				c1.001,0,1.748-0.596,1.748-1.432c0-0.925-0.702-1.357-1.509-1.685l-1.496-0.597c-1.345-0.537-2.017-1.506-2.017-2.804
				c0-1.641,1.255-2.998,3.364-2.998c1.165,0,2.211,0.283,3.078,1.014l-0.911,1.252c-0.792-0.567-1.404-0.865-2.256-0.865
				c-0.943,0-1.631,0.447-1.631,1.357c0,0.731,0.448,1.148,1.36,1.536l1.407,0.597c1.509,0.641,2.361,1.581,2.361,2.893
				c0,1.983-1.659,3.206-3.648,3.206C49.07,15.326,47.785,14.983,46.799,14.088"/>
			<rect x="55.496" y="4.513" clip-path="url(#SVGID_8_)" fill="#1A1818" width="1.763" height="10.633"/>
			<polygon clip-path="url(#SVGID_8_)" fill="#1A1818" points="61.308,5.945 58.395,5.945 58.395,4.513 65.955,4.513 65.955,5.945 
				63.071,5.945 63.071,15.147 61.308,15.147 			"/>
			<polygon clip-path="url(#SVGID_8_)" fill="#1A1818" points="69.257,10.762 66.328,4.514 68.181,4.514 70.243,9.152 72.29,4.514 
				73.948,4.514 71.02,10.777 71.02,15.147 69.257,15.147 			"/>
			<path clip-path="url(#SVGID_8_)" fill="#1A1818" d="M82.898,11.881V7.675c0-1.193-0.792-1.894-2.017-1.894
				c-1.255,0-1.942,0.82-1.942,2.028v4.072c0,1.208,0.717,1.968,2.002,1.968C82.166,13.849,82.898,13.044,82.898,11.881
				 M77.175,11.94V7.825c0-2.282,1.629-3.505,3.735-3.505c2.062,0,3.765,1.014,3.765,3.385v4.116c0,2.371-1.688,3.505-3.75,3.505
				C78.849,15.326,77.175,14.327,77.175,11.94"/>
			<polygon clip-path="url(#SVGID_8_)" fill="#1A1818" points="86.259,4.514 92.566,4.514 92.566,5.945 88.022,5.945 88.022,9.033 
				91.625,9.033 91.625,10.464 88.022,10.464 88.022,15.147 86.259,15.147 			"/>
			<polygon clip-path="url(#SVGID_8_)" fill="#1A1818" points="0.457,17.272 2.263,17.272 3.785,25.242 3.832,25.242 5.509,17.272 
				7.439,17.272 9.054,25.211 9.086,25.211 10.576,17.272 12.286,17.272 9.933,28.483 8.145,28.483 6.418,20.169 6.356,20.169 
				4.6,28.483 2.794,28.483 			"/>
			<path clip-path="url(#SVGID_8_)" fill="#1A1818" d="M19.112,25.007v-4.415c0-1.253-0.832-1.989-2.12-1.989
				c-1.317,0-2.038,0.861-2.038,2.13v4.274c0,1.269,0.753,2.067,2.102,2.067C18.341,27.074,19.112,26.228,19.112,25.007
				 M13.101,25.07v-4.322c0-2.396,1.712-3.68,3.923-3.68c2.164,0,3.953,1.064,3.953,3.554v4.322c0,2.489-1.771,3.679-3.938,3.679
				C14.86,28.624,13.101,27.575,13.101,25.07"/>
			<polygon clip-path="url(#SVGID_8_)" fill="#1A1818" points="22.64,17.272 24.492,17.272 24.492,26.87 29.275,26.87 
				29.275,28.436 22.64,28.436 			"/>
			<polygon clip-path="url(#SVGID_8_)" fill="#1A1818" points="30.39,17.272 32.24,17.272 32.24,26.87 37.025,26.87 37.025,28.436 
				30.39,28.436 			"/>
			<path clip-path="url(#SVGID_8_)" fill="#1A1818" d="M43.881,25.007v-4.415c0-1.253-0.832-1.989-2.118-1.989
				c-1.319,0-2.04,0.861-2.04,2.13v4.274c0,1.269,0.753,2.067,2.103,2.067C43.113,27.074,43.881,26.228,43.881,25.007 M37.873,25.07
				v-4.322c0-2.396,1.71-3.68,3.921-3.68c2.167,0,3.955,1.064,3.955,3.554v4.322c0,2.489-1.773,3.679-3.938,3.679
				C39.629,28.624,37.873,27.575,37.873,25.07"/>
			<polygon clip-path="url(#SVGID_8_)" fill="#1A1818" points="47.411,17.272 49.247,17.272 53.481,24.741 53.514,24.741 
				53.514,17.272 55.161,17.272 55.161,28.436 53.592,28.436 49.089,20.435 49.057,20.435 49.057,28.436 47.411,28.436 			"/>
			<path clip-path="url(#SVGID_8_)" fill="#1A1818" d="M56.807,25.164v-4.588c0-2.192,1.71-3.508,3.906-3.508
				c2.04,0,3.688,1.112,3.688,3.022v0.72h-1.68v-0.532c0-1.033-0.8-1.738-1.991-1.738c-1.319,0-2.087,0.861-2.087,2.067v4.479
				c0,1.268,0.768,2.051,2.102,2.051c1.428,0,1.945-0.736,1.945-1.754v-1.566h-2.007v-1.378h3.748v3.069
				c-0.015,1.958-1.616,3.116-3.718,3.116C58.563,28.624,56.807,27.544,56.807,25.164"/>
			<path clip-path="url(#SVGID_8_)" fill="#1A1818" d="M71.852,25.007v-4.415c0-1.253-0.832-1.989-2.117-1.989
				c-1.319,0-2.04,0.861-2.04,2.13v4.274c0,1.269,0.753,2.067,2.103,2.067C71.084,27.074,71.852,26.228,71.852,25.007 M65.844,25.07
				v-4.322c0-2.396,1.71-3.68,3.921-3.68c2.166,0,3.955,1.064,3.955,3.554v4.322c0,2.489-1.774,3.679-3.938,3.679
				C67.6,28.624,65.844,27.575,65.844,25.07"/>
			<polygon clip-path="url(#SVGID_8_)" fill="#1A1818" points="75.382,17.272 77.216,17.272 81.453,24.741 81.485,24.741 
				81.485,17.272 83.13,17.272 83.13,28.436 81.561,28.436 77.06,20.435 77.028,20.435 77.028,28.436 75.382,28.436 			"/>
			<path clip-path="url(#SVGID_8_)" fill="#1A1818" d="M84.778,25.164v-4.588c0-2.192,1.71-3.508,3.906-3.508
				c2.04,0,3.686,1.112,3.686,3.022v0.72h-1.678v-0.532c0-1.033-0.8-1.738-1.991-1.738c-1.319,0-2.087,0.861-2.087,2.067v4.479
				c0,1.268,0.768,2.051,2.102,2.051c1.428,0,1.944-0.736,1.944-1.754v-1.566h-2.006v-1.378h3.748v3.069
				c-0.015,1.958-1.616,3.116-3.718,3.116C86.534,28.624,84.778,27.544,84.778,25.164"/>
			<path clip-path="url(#SVGID_8_)" fill="#1A1818" d="M102.207,15.574c0,9.414,2.386,12.187,3.966,14.021
				c3.103,3.598,9.56,6.037,11.466,6.698l0.122,0.043l0.124-0.043c1.904-0.661,8.36-3.1,11.466-6.698
				c1.579-1.834,3.966-4.606,3.966-14.021V2.37h-31.109V15.574z M135.102,0.588v14.985c0,10.077-2.647,13.15-4.399,15.184
				c-3.302,3.827-9.656,6.322-12.243,7.221l-0.698,0.239l-0.711-0.241c-2.578-0.896-8.931-3.391-12.235-7.221
				c-1.752-2.034-4.397-5.107-4.397-15.182V0.588H135.102z"/>
			<path clip-path="url(#SVGID_8_)" fill="#1A1818" d="M126.894,28.307h-7.18c-0.211,0.342-0.777,1.027-1.919,1.027
				c-1.097,0-1.703-0.702-1.927-1.035h-7.236V17.468h0.617v10.214h6.791l0.19,0.002l0.085,0.167
				c0.019,0.035,0.459,0.867,1.479,0.867c1.069,0,1.437-0.807,1.451-0.839l0.079-0.189h6.952V17.487h0.617V28.307z M110.021,17.202
				h5.526c0.57,0,1.026,0.172,1.351,0.511c0.563,0.589,0.529,1.462,0.529,1.495v8.685l-0.201,0.004
				c-0.004-0.051-0.145-1.137-1.671-1.137h-5.535V17.202z M118.627,17.713c0.327-0.339,0.782-0.511,1.351-0.511h5.526v9.559h-5.535
				c-1.526,0-1.665,1.086-1.671,1.137l-0.201-0.004v-8.681C118.098,19.176,118.064,18.302,118.627,17.713 M132.567,14.352
				c-2.832,0-2.747-1.37-4.877-1.37c-2.128,0-2.143,1.37-4.98,1.37c-2.834,0-2.747-1.37-4.881-1.37c-2.126,0-2.147,1.37-4.977,1.37
				c-2.834,0-2.747-1.37-4.879-1.37c-2.128,0-2.166,1.37-5.005,1.37v0.21v0.06h-0.008v1.057c0,5.421,0.836,8.518,1.831,10.505
				c-0.032-0.05-0.066-0.098-0.098-0.15c0.664,1.381,1.407,2.243,2.024,2.955c2.954,3.417,9.101,5.733,10.917,6.362l0.115,0.04
				l0.117-0.04c1.814-0.629,7.961-2.943,10.917-6.362c0.329-0.38,0.691-0.805,1.061-1.325c0.034-0.048,0.068-0.097,0.102-0.145
				c0.047-0.07,0.094-0.141,0.143-0.215c0.058-0.088,0.115-0.179,0.173-0.272c0.017-0.027,0.032-0.052,0.047-0.078
				c0.079-0.131,0.158-0.268,0.235-0.411c0.009-0.011,0.013-0.023,0.021-0.035c1.065-1.971,2-5.103,2-10.83v-0.177v-0.941
				L132.567,14.352z"/>
			<path clip-path="url(#SVGID_8_)" fill="#1A1818" d="M131.167,7.375c-0.397,0.865-0.64,1.068-1.031,1.196
				c-0.399,0.129-0.858,0.035-1.332-0.27c-0.055-0.035-0.103-0.068-0.143-0.097l-0.011-0.007c-0.147-0.104-0.224-0.154-0.348-0.114
				c-0.085,0.028-0.158,0.088-0.211,0.174c-0.005,0.097,0.019,0.185,0.068,0.255c0.079,0.108,0.169,0.11,0.35,0.113
				c0.051,0.001,0.113,0.002,0.184,0.006c0.393,0.021,0.926,0.137,1.238,0.563c0.241,0.333,0.318,0.639,0.13,1.571
				c-0.053,0.268-0.085,0.444-0.053,0.618c0.004,0.015-0.002,0.03-0.015,0.038c-0.006,0.006-0.015,0.008-0.023,0.008
				c-0.007,0-0.013-0.001-0.02-0.005c-0.153-0.083-0.331-0.108-0.602-0.14c-0.947-0.111-1.217-0.278-1.46-0.609
				c-0.31-0.426-0.254-0.969-0.151-1.349c0.017-0.066,0.034-0.122,0.051-0.176c0.051-0.165,0.079-0.257,0-0.365
				c-0.054-0.073-0.132-0.124-0.23-0.148c-0.094,0.026-0.171,0.076-0.222,0.145c-0.079,0.108-0.053,0.193,0.002,0.371
				c0.015,0.049,0.032,0.105,0.051,0.171c0.1,0.38,0.154,0.922-0.154,1.347c-0.243,0.333-0.512,0.501-1.458,0.61
				c-0.275,0.032-0.453,0.057-0.604,0.141c-0.006,0.003-0.013,0.005-0.021,0.005c-0.019-0.002-0.04-0.017-0.04-0.039
				c0-0.007,0.002-0.013,0.006-0.018c0.028-0.17-0.002-0.343-0.055-0.605c-0.188-0.933-0.111-1.24,0.13-1.572
				c0.312-0.426,0.845-0.541,1.238-0.563c0.07-0.004,0.13-0.005,0.186-0.006c0.177-0.003,0.269-0.005,0.346-0.112
				c0.053-0.072,0.077-0.164,0.071-0.264c-0.054-0.081-0.124-0.138-0.205-0.166c-0.124-0.039-0.197,0.006-0.348,0.112
				c-0.045,0.031-0.094,0.067-0.154,0.105c-0.337,0.217-0.664,0.327-0.969,0.327c-0.126,0-0.248-0.019-0.363-0.056
				c-0.393-0.128-0.634-0.33-1.033-1.195c-0.113-0.249-0.192-0.409-0.32-0.53c-0.011-0.011-0.015-0.027-0.011-0.04
				c0.004-0.015,0.017-0.025,0.034-0.027c0.175-0.023,0.331-0.106,0.572-0.241c0.546-0.307,0.871-0.428,1.159-0.428
				c0.12,0,0.239,0.021,0.378,0.066c0.502,0.163,0.777,0.634,0.918,1c0.026,0.066,0.047,0.123,0.062,0.174
				c0.06,0.169,0.087,0.254,0.216,0.295c0.085,0.029,0.181,0.023,0.273-0.016c0.062-0.076,0.094-0.161,0.094-0.247
				c0-0.134-0.073-0.187-0.215-0.295l-0.011-0.009c-0.041-0.03-0.085-0.064-0.134-0.104c-0.305-0.249-0.67-0.655-0.67-1.182
				c0-0.41,0.119-0.702,0.822-1.348c0.201-0.186,0.329-0.31,0.404-0.468c0.006-0.014,0.021-0.023,0.036-0.023
				c0.015,0,0.03,0.009,0.037,0.023c0.074,0.159,0.203,0.283,0.405,0.468c0.7,0.645,0.82,0.937,0.82,1.348
				c0,0.526-0.363,0.933-0.668,1.182c-0.055,0.043-0.102,0.079-0.147,0.112c-0.143,0.108-0.216,0.161-0.216,0.295
				c0,0.091,0.034,0.179,0.101,0.255c0.09,0.035,0.184,0.04,0.265,0.014c0.126-0.042,0.156-0.127,0.213-0.296l0.006-0.02
				c0.017-0.046,0.034-0.095,0.055-0.153c0.143-0.366,0.418-0.837,0.92-1c0.137-0.044,0.256-0.065,0.375-0.065
				c0.29,0,0.615,0.119,1.161,0.426c0.239,0.135,0.397,0.218,0.572,0.24c0.015,0.002,0.028,0.013,0.032,0.027
				c0.006,0.015,0.002,0.031-0.01,0.041C131.359,6.967,131.282,7.126,131.167,7.375"/>
			<path clip-path="url(#SVGID_8_)" fill="#1A1818" d="M121.442,7.375c-0.397,0.865-0.64,1.068-1.031,1.196
				c-0.397,0.129-0.856,0.036-1.334-0.27c-0.058-0.039-0.107-0.072-0.154-0.105c-0.147-0.103-0.222-0.152-0.346-0.112
				c-0.085,0.028-0.158,0.088-0.211,0.174c-0.006,0.097,0.019,0.185,0.071,0.255c0.077,0.108,0.166,0.11,0.346,0.113
				c0.053,0.001,0.115,0.002,0.186,0.006c0.393,0.021,0.926,0.137,1.236,0.563c0.243,0.333,0.318,0.639,0.132,1.571
				c-0.055,0.269-0.085,0.445-0.054,0.618c0.005,0.015-0.002,0.03-0.015,0.038c-0.009,0.006-0.015,0.008-0.023,0.008
				c-0.007,0-0.013-0.001-0.019-0.005c-0.154-0.083-0.331-0.108-0.604-0.14c-0.948-0.111-1.215-0.278-1.458-0.609
				c-0.31-0.426-0.254-0.969-0.154-1.349c0.017-0.062,0.034-0.117,0.047-0.165l0.004-0.011c0.053-0.171,0.079-0.257,0.002-0.365
				c-0.053-0.073-0.132-0.124-0.23-0.148c-0.094,0.026-0.171,0.076-0.222,0.145c-0.079,0.108-0.051,0.194,0,0.365l0.006,0.013
				c0.013,0.048,0.03,0.102,0.047,0.164c0.098,0.38,0.154,0.923-0.156,1.347c-0.243,0.333-0.51,0.501-1.456,0.61
				c-0.275,0.032-0.452,0.057-0.606,0.141c-0.006,0.003-0.013,0.005-0.019,0.005c-0.023-0.002-0.041-0.017-0.041-0.039
				c0-0.007,0.002-0.013,0.004-0.018c0.03-0.171-0.002-0.343-0.054-0.605c-0.188-0.933-0.111-1.24,0.13-1.572
				c0.31-0.426,0.843-0.541,1.238-0.563c0.07-0.004,0.13-0.005,0.184-0.006c0.179-0.003,0.269-0.005,0.348-0.112
				c0.053-0.072,0.077-0.164,0.07-0.264c-0.053-0.081-0.124-0.139-0.207-0.166c-0.122-0.04-0.194,0.006-0.348,0.112
				c-0.042,0.031-0.094,0.067-0.151,0.105c-0.337,0.217-0.664,0.327-0.969,0.327c-0.126,0-0.247-0.019-0.363-0.056
				c-0.393-0.128-0.636-0.331-1.033-1.195c-0.115-0.249-0.192-0.409-0.32-0.53c-0.013-0.011-0.015-0.027-0.011-0.04
				c0.004-0.015,0.017-0.025,0.032-0.027c0.175-0.023,0.331-0.106,0.572-0.241c0.546-0.307,0.873-0.428,1.161-0.428
				c0.119,0,0.239,0.021,0.376,0.066c0.504,0.163,0.777,0.634,0.92,1c0.021,0.054,0.039,0.101,0.053,0.144l0.009,0.03
				c0.06,0.169,0.088,0.254,0.215,0.295c0.085,0.029,0.179,0.023,0.273-0.016c0.062-0.076,0.094-0.161,0.094-0.247
				c0-0.134-0.077-0.191-0.216-0.295l-0.023-0.017c-0.036-0.028-0.077-0.059-0.124-0.096c-0.303-0.249-0.668-0.656-0.668-1.182
				c0-0.411,0.117-0.702,0.82-1.348c0.202-0.185,0.328-0.309,0.405-0.468c0.006-0.014,0.021-0.023,0.036-0.023
				c0.015,0,0.03,0.009,0.034,0.023c0.077,0.159,0.205,0.283,0.408,0.468c0.7,0.645,0.82,0.937,0.82,1.348
				c0,0.526-0.365,0.933-0.67,1.182c-0.045,0.037-0.085,0.067-0.122,0.095l-0.023,0.017c-0.143,0.108-0.216,0.161-0.216,0.295
				c0,0.091,0.034,0.179,0.098,0.255c0.092,0.035,0.183,0.04,0.267,0.014c0.126-0.042,0.158-0.132,0.213-0.296
				c0.017-0.05,0.036-0.108,0.062-0.174c0.143-0.366,0.418-0.837,0.918-1c0.137-0.044,0.258-0.065,0.378-0.065
				c0.288,0,0.615,0.119,1.161,0.427c0.239,0.134,0.394,0.218,0.572,0.24c0.015,0.002,0.028,0.013,0.032,0.027
				c0.004,0.015,0,0.031-0.011,0.041C121.634,6.966,121.558,7.126,121.442,7.375"/>
			<path clip-path="url(#SVGID_8_)" fill="#1A1818" d="M111.718,7.375c-0.399,0.865-0.64,1.068-1.033,1.196
				c-0.397,0.129-0.856,0.035-1.332-0.27c-0.058-0.039-0.109-0.072-0.154-0.104c-0.147-0.104-0.224-0.153-0.346-0.114
				c-0.088,0.028-0.16,0.088-0.211,0.174c-0.006,0.097,0.017,0.185,0.068,0.255c0.079,0.108,0.169,0.11,0.348,0.113
				c0.053,0.001,0.113,0.002,0.183,0.006c0.395,0.021,0.929,0.137,1.238,0.563c0.241,0.333,0.318,0.639,0.13,1.571
				c-0.053,0.268-0.086,0.444-0.051,0.618c0.002,0.015-0.004,0.03-0.017,0.038c-0.006,0.006-0.015,0.008-0.021,0.008
				c-0.007,0-0.013-0.001-0.019-0.005c-0.154-0.083-0.331-0.108-0.604-0.14c-0.948-0.111-1.215-0.278-1.458-0.609
				c-0.31-0.426-0.256-0.969-0.154-1.349c0.017-0.062,0.032-0.117,0.047-0.164l0.004-0.013c0.051-0.165,0.079-0.257,0-0.365
				c-0.051-0.073-0.132-0.124-0.23-0.148c-0.092,0.026-0.171,0.076-0.22,0.145c-0.081,0.108-0.053,0.193,0.002,0.371
				c0.015,0.049,0.032,0.105,0.049,0.171c0.1,0.38,0.156,0.923-0.154,1.347c-0.241,0.333-0.51,0.501-1.458,0.61
				c-0.273,0.032-0.451,0.057-0.604,0.141c-0.007,0.003-0.013,0.005-0.019,0.005h-0.002c-0.021,0-0.038-0.018-0.038-0.039
				c0-0.007,0-0.013,0.004-0.018c0.03-0.17-0.002-0.343-0.055-0.605c-0.188-0.933-0.109-1.24,0.132-1.572
				c0.309-0.426,0.843-0.541,1.236-0.563c0.07-0.004,0.132-0.005,0.186-0.006c0.18-0.003,0.267-0.005,0.348-0.112
				c0.053-0.073,0.077-0.164,0.068-0.264c-0.051-0.081-0.121-0.138-0.205-0.166c-0.122-0.039-0.196,0.006-0.348,0.112
				c-0.045,0.031-0.094,0.067-0.152,0.105c-0.339,0.217-0.664,0.327-0.969,0.327h-0.002c-0.124,0-0.248-0.019-0.363-0.056
				c-0.393-0.128-0.634-0.33-1.031-1.195c-0.115-0.249-0.194-0.409-0.322-0.53c-0.011-0.011-0.015-0.027-0.011-0.04
				c0.006-0.015,0.019-0.025,0.032-0.027c0.177-0.023,0.333-0.106,0.574-0.241c0.546-0.307,0.873-0.428,1.161-0.428
				c0.117,0,0.239,0.021,0.376,0.066c0.501,0.163,0.777,0.634,0.92,1c0.023,0.066,0.045,0.123,0.062,0.174
				c0.058,0.169,0.088,0.254,0.216,0.295c0.083,0.029,0.179,0.023,0.271-0.016c0.062-0.076,0.096-0.162,0.096-0.247
				c0-0.134-0.073-0.187-0.216-0.295l-0.013-0.009c-0.038-0.03-0.085-0.064-0.134-0.104c-0.305-0.249-0.668-0.655-0.668-1.182
				c0-0.41,0.117-0.702,0.82-1.348c0.2-0.186,0.329-0.309,0.406-0.468c0.006-0.014,0.019-0.023,0.036-0.023
				c0.015,0,0.028,0.009,0.034,0.023c0.077,0.159,0.205,0.283,0.408,0.468c0.7,0.645,0.817,0.937,0.817,1.348
				c0,0.526-0.363,0.933-0.668,1.182c-0.051,0.042-0.098,0.078-0.147,0.112c-0.143,0.108-0.213,0.161-0.213,0.295
				c0,0.091,0.034,0.179,0.098,0.255c0.092,0.035,0.184,0.04,0.265,0.014c0.128-0.042,0.156-0.127,0.213-0.296l0.009-0.02
				c0.015-0.045,0.032-0.095,0.056-0.154c0.141-0.366,0.416-0.837,0.92-1c0.134-0.044,0.256-0.065,0.373-0.065
				c0.29,0,0.617,0.119,1.163,0.426c0.239,0.135,0.397,0.218,0.572,0.24c0.015,0.002,0.028,0.013,0.032,0.027
				c0.004,0.015,0,0.031-0.011,0.041C111.91,6.965,111.831,7.126,111.718,7.375"/>
			<path clip-path="url(#SVGID_8_)" fill="#1A1818" d="M51.405,40.178h1.097l0.382-1.419h1.846l0.391,1.419h1.197l-1.72-5.925
				h-1.447L51.405,40.178z M53.134,37.854l0.666-2.448h0.023l0.658,2.448H53.134z"/>
			<path clip-path="url(#SVGID_8_)" fill="#1A1818" d="M59.02,40.277c1.238,0,2.145-0.688,2.137-1.966v-4.049h-1.14v4.058
				c0.017,0.622-0.374,1.004-0.948,1.004c-0.523,0-0.979-0.282-0.979-1.021v-4.041h-1.189v4.107
				C56.901,39.714,57.797,40.277,59.02,40.277"/>
			<path clip-path="url(#SVGID_8_)" fill="#1A1818" d="M63.908,40.277c1.123,0,2.122-0.655,2.122-1.834
				c0-0.73-0.482-1.278-1.332-1.643l-0.681-0.299c-0.474-0.199-0.781-0.39-0.781-0.772c0-0.432,0.299-0.647,0.781-0.647
				c0.448,0,0.83,0.216,1.221,0.506l0.617-0.821c-0.508-0.423-1.114-0.606-1.789-0.606c-1.212,0-1.962,0.797-1.962,1.743
				c0,0.755,0.399,1.27,1.172,1.585l0.798,0.332c0.442,0.191,0.766,0.382,0.766,0.821c0,0.407-0.384,0.664-0.882,0.664
				c-0.692,0-1.123-0.274-1.513-0.573l-0.608,0.83C62.394,40.087,63.118,40.277,63.908,40.277"/>
			<polygon clip-path="url(#SVGID_8_)" fill="#1A1818" points="68.091,40.178 69.28,40.178 69.28,35.216 70.851,35.216 
				70.851,34.262 66.51,34.262 66.51,35.216 68.091,35.216 			"/>
			<path clip-path="url(#SVGID_8_)" fill="#1A1818" d="M71.506,40.178h1.189v-2.257h0.715l1.082,2.257h1.281l-1.264-2.465
				c0.739-0.224,1.097-0.863,1.097-1.676c0-1.054-0.64-1.775-1.912-1.775h-2.188V40.178z M72.695,37.042v-1.851h0.858
				c0.606,0,0.881,0.365,0.881,0.921c0,0.622-0.309,0.929-0.915,0.929H72.695z"/>
			<path clip-path="url(#SVGID_8_)" fill="#1A1818" d="M76.163,40.178h1.097l0.382-1.419h1.846l0.391,1.419h1.197l-1.722-5.925
				h-1.445L76.163,40.178z M77.892,37.854l0.666-2.448h0.023l0.658,2.448H77.892z"/>
			<polygon clip-path="url(#SVGID_8_)" fill="#1A1818" points="81.709,40.178 85.39,40.178 85.39,39.199 82.897,39.199 
				82.897,34.262 81.709,34.262 			"/>
			<rect x="86.174" y="34.262" clip-path="url(#SVGID_8_)" fill="#1A1818" width="1.189" height="5.916"/>
			<path clip-path="url(#SVGID_8_)" fill="#1A1818" d="M87.994,40.178h1.097l0.382-1.419h1.846l0.391,1.419h1.197l-1.722-5.925
				H89.74L87.994,40.178z M89.723,37.854l0.664-2.448h0.026l0.658,2.448H89.723z"/>
		</g>
	</g>
</g>
</svg>
